<?xml version="1.0" encoding="UTF-8"?>
<svg width="20px" height="20px" viewBox="0 0 20 20" version="1.1" xmlns="http://www.w3.org/2000/svg" xmlns:xlink="http://www.w3.org/1999/xlink">
    <!-- Generator: Sketch 63.1 (92452) - https://sketch.com -->
    <title>Icons/ic-wait</title>
    <desc>Created with Sketch.</desc>
    <g id="Page-1" stroke="none" stroke-width="1" fill="none" fill-rule="evenodd">
        <g id="screen-after-confirmation" transform="translate(-876.000000, -205.000000)">
            <g id="Icons/ic-wait" transform="translate(877.000000, 206.000000)">
                <circle id="Oval-Copy-2" stroke="#FFFFFF" fill="#616775" cx="9" cy="9" r="9.5"></circle>
                <g id="Group-2" transform="translate(5.000000, 3.000000)" fill="#FFFFFF" fill-rule="nonzero">
                    <g id="Group-3" transform="translate(0.000000, 1.000000)">
                        <path d="M7.96375637,0 C8.69386172,1.22606963 7.03172935,4.03996815 5.5751799,5.50004934 C7.03362615,6.95558396 8.69755763,9.76356054 7.96127721,11 L0.319227379,11 C-0.410877965,9.77393037 1.25125441,6.96003185 2.70780385,5.49995066 C1.29797248,4.09293386 -0.303873425,1.42213518 0.255982696,0.128774107 L0.321706538,0 L7.96375637,0 Z M7.145,0.916666667 L1.143,0.916666667 L1.15073499,0.987383086 C1.2843197,1.92772962 2.18700312,3.55886421 3.29235248,4.72398157 L3.44428494,4.87986404 L4.06424043,5.49858186 L3.44577251,6.11854939 C2.27736926,7.28978571 1.31624394,9.00862826 1.15217672,9.97809958 L1.137,10.0833333 L7.145,10.0833333 L7.13111978,9.97475234 C6.97717706,9.04537241 6.09223623,7.43699406 4.99026463,6.27562763 L4.83869882,6.12013596 L4.21874333,5.50141814 L4.83721124,4.88145061 C6.00561449,3.71021429 6.96673981,1.99137174 7.13080703,1.02190042 L7.145,0.916666667 Z" id="Combined-Shape"></path>
                    </g>
                </g>
            </g>
        </g>
    </g>
</svg>