<svg width="16" height="16" viewBox="0 0 16 16" fill="none" xmlns="http://www.w3.org/2000/svg">
<path fill-rule="evenodd" clip-rule="evenodd" d="M8 14.75C11.7279 14.75 14.75 11.7279 14.75 8C14.75 4.27208 11.7279 1.25 8 1.25C4.27208 1.25 1.25 4.27208 1.25 8C1.25 11.7279 4.27208 14.75 8 14.75ZM16 8C16 12.4183 12.4183 16 8 16C3.58172 16 0 12.4183 0 8C0 3.58172 3.58172 0 8 0C12.4183 0 16 3.58172 16 8Z" fill="#616775"/>
<path d="M10.9378 3.82499C11.492 4.75569 10.2303 6.89169 9.12463 8.00003C10.2317 9.10491 11.4948 11.2364 10.9359 12.175H5.13488C4.58067 11.2443 5.84238 9.10829 6.94803 7.99995C5.87784 6.9319 4.66189 4.90452 5.08688 3.92274L5.13677 3.82499H10.9378ZM10.3163 4.52082H5.7602L5.76607 4.5745C5.86748 5.28831 6.5527 6.52649 7.39176 7.41092L7.50709 7.52925L7.97769 7.99891L7.50822 8.46952C6.62129 9.3586 5.89171 10.6634 5.76717 11.3993L5.75565 11.4792H10.3163L10.3057 11.3967C10.1889 10.6912 9.51712 9.47034 8.68062 8.58876L8.56557 8.47073L8.09497 8.00107L8.56444 7.53045C9.45137 6.64138 10.1809 5.33662 10.3055 4.6007L10.3163 4.52082Z" fill="#616775"/>
<path fill-rule="evenodd" clip-rule="evenodd" d="M5.06022 3.69999H11.0088L11.0452 3.76103C11.2051 4.02962 11.227 4.37196 11.1671 4.73451C11.1068 5.09895 10.9613 5.4998 10.766 5.90064C10.3954 6.66127 9.83627 7.44056 9.29966 7.99984C9.83698 8.55746 10.3968 9.33495 10.7674 10.0951C10.9627 10.4957 11.108 10.8967 11.1677 11.2619C11.2272 11.6253 11.2043 11.9686 11.0433 12.2389L11.0069 12.3H5.06384L5.02748 12.2389C4.86754 11.9704 4.84561 11.628 4.90557 11.2655C4.96584 10.901 5.11134 10.5002 5.30663 10.0993C5.67722 9.33871 6.23639 8.55942 6.773 8.00014C6.25446 7.46201 5.71516 6.71932 5.34514 5.98526C5.14972 5.59757 4.99934 5.20801 4.92546 4.84899C4.85197 4.49182 4.85153 4.15177 4.97216 3.87308L4.97531 3.8658L5.06022 3.69999ZM5.20008 3.9759C5.10965 4.1877 5.10229 4.46796 5.17033 4.7986C5.23836 5.12922 5.37916 5.49734 5.56838 5.87273C5.94696 6.62378 6.51059 7.38679 7.03633 7.91148L7.12479 7.99976L7.03653 8.08823C6.4932 8.63287 5.90953 9.43269 5.53138 10.2088C5.34232 10.5969 5.2072 10.9738 5.15222 11.3063C5.10243 11.6073 5.12033 11.8592 5.20993 12.05H10.8609C10.9518 11.8573 10.9704 11.604 10.921 11.3023C10.8665 10.9693 10.7316 10.5923 10.5427 10.2046C10.1646 9.42919 9.58032 8.63141 9.03633 8.0885L8.94787 8.00022L9.03613 7.91175C9.57946 7.36711 10.1631 6.56729 10.5413 5.79114C10.7303 5.4031 10.8655 5.02618 10.9204 4.69372C10.9702 4.39267 10.9523 4.1408 10.8627 3.94999H5.21331L5.20008 3.9759ZM5.62078 4.39582H10.4593L10.4288 4.62157C10.3629 5.01116 10.1408 5.53649 9.82883 6.07114C9.51553 6.60811 9.10513 7.16545 8.65294 7.61874L8.27173 8.00087L8.65509 8.38347L8.77131 8.50271C9.19729 8.95165 9.58016 9.48561 9.87163 9.99688C10.1618 10.5059 10.3671 11.0024 10.429 11.3763L10.4298 11.3809L10.4583 11.6042H5.61133L5.64388 11.3784C5.70981 10.9888 5.93189 10.4635 6.24383 9.92884C6.55713 9.39187 6.96753 8.83453 7.41972 8.38124L7.80093 7.99911L7.41756 7.61651L7.30106 7.49696C6.87382 7.04661 6.48687 6.50756 6.19356 5.9904C5.90172 5.47581 5.69626 4.9718 5.64232 4.59208L5.64175 4.5881L5.62078 4.39582ZM8.03532 8.11813L7.59671 8.55781C7.16197 8.9936 6.76412 9.53317 6.45976 10.0548C6.17297 10.5464 5.97479 11.0124 5.90297 11.3542H10.1707C10.1038 11.0278 9.92093 10.5881 9.65445 10.1207C9.37184 9.62497 9.00081 9.10793 8.59052 8.6754L8.47665 8.55859L8.03532 8.11813ZM8.03734 7.88184L7.596 7.44139L7.48186 7.32428C7.07028 6.89032 6.6953 6.36831 6.41102 5.86706C6.14965 5.40621 5.97022 4.97218 5.90511 4.64582H10.1697C10.0979 4.98755 9.89969 5.4536 9.61289 5.94515C9.30853 6.4668 8.91068 7.00638 8.47595 7.44217L8.03734 7.88184Z" fill="#616775"/>
</svg>
