<svg width="16" height="16" viewBox="0 0 16 16" fill="none" xmlns="http://www.w3.org/2000/svg">
    <mask id="mask0_2406_4137" style="mask-type:alpha" maskUnits="userSpaceOnUse" x="0" y="0" width="16" height="16">
        <path d="M13.1465 5.85352C13.3417 5.65832 13.6583 5.65829 13.8535 5.85352L15.1465 7.14648C15.4613 7.46145 15.2383 7.9999 14.793 8H14L13.9922 8.30859C13.8316 11.4789 11.2102 14 7.99998 14C6.62284 14 5.35264 13.5356 4.33983 12.7549C4.1212 12.5864 4.08064 12.2724 4.249 12.0537C4.4176 11.835 4.73148 11.7943 4.95018 11.9629C5.79422 12.6135 6.85134 13 7.99998 13C10.6752 13 12.8595 10.8989 12.9931 8.25684L13 8H12.207C11.7616 7.99998 11.5385 7.46146 11.8535 7.14648L13.1465 5.85352Z" fill="#616F8F"/>
        <path d="M7.99998 2C9.5292 2.00001 10.9259 2.57272 11.9853 3.51465C12.1916 3.69807 12.2105 4.01435 12.0273 4.2207C11.8439 4.42696 11.5276 4.44591 11.3213 4.2627C10.4378 3.47708 9.27508 3.00001 7.99998 3C5.23856 3 2.99998 5.23858 2.99998 8H3.79295C4.23829 8.0001 4.46133 8.53855 4.14647 8.85352L2.8535 10.1465C2.65825 10.3417 2.34173 10.3417 2.14647 10.1465L0.853497 8.85352C0.538539 8.53854 0.761584 8.00002 1.20701 8H1.99998C1.99998 4.68629 4.68627 2 7.99998 2Z" fill="#616F8F"/>
    </mask>
    <g mask="url(#mask0_2406_4137)">
        <rect y="-1" width="16" height="17" fill="#616F8F"/>
    </g>
</svg>
